<svg width="500" height="500" viewBox="0 0 500 500" fill="none" xmlns="http://www.w3.org/2000/svg">
<path d="M227.905 89H293.817V154.912C293.817 166.408 284.498 175.727 273.002 175.727H207.09V109.814C207.09 98.3188 216.409 89 227.905 89Z" fill="#3B84C9"/>
<path d="M222.701 144.994L234.485 133.209C234.602 133.093 234.694 132.955 234.757 132.803C234.82 132.651 234.852 132.489 234.852 132.324C234.852 132.16 234.82 131.997 234.757 131.845C234.694 131.694 234.602 131.556 234.485 131.439L222.737 119.69L227.39 115.036L240.89 128.536C241.387 129.033 241.782 129.624 242.051 130.274C242.32 130.923 242.459 131.62 242.459 132.323C242.459 133.027 242.32 133.723 242.051 134.373C241.782 135.023 241.387 135.614 240.89 136.111L227.424 149.577L222.701 144.994ZM278.206 119.69L266.422 131.475C266.305 131.591 266.213 131.729 266.15 131.881C266.087 132.032 266.055 132.195 266.055 132.36C266.055 132.524 266.087 132.687 266.15 132.838C266.213 132.99 266.305 133.128 266.422 133.245L278.17 144.994L273.517 149.647L260.017 136.147C259.52 135.65 259.125 135.06 258.856 134.41C258.587 133.76 258.448 133.063 258.448 132.36C258.448 131.656 258.587 130.96 258.856 130.31C259.125 129.66 259.52 129.07 260.017 128.572L273.483 115.107L278.206 119.69ZM237.766 104.611L249.551 116.395C249.667 116.511 249.805 116.604 249.957 116.666C250.108 116.729 250.271 116.762 250.436 116.762C250.6 116.762 250.763 116.729 250.915 116.666C251.066 116.604 251.204 116.511 251.321 116.395L263.07 104.646L267.724 109.3L254.224 122.8C253.727 123.297 253.136 123.692 252.486 123.961C251.837 124.23 251.14 124.369 250.437 124.369C249.733 124.369 249.037 124.23 248.387 123.961C247.737 123.692 247.146 123.297 246.649 122.8L233.183 109.334L237.766 104.611ZM263.141 160.116L251.356 148.331C251.24 148.215 251.102 148.123 250.95 148.06C250.798 147.997 250.635 147.965 250.471 147.965C250.306 147.965 250.144 147.997 249.992 148.06C249.84 148.123 249.702 148.215 249.586 148.331L237.837 160.08L233.183 155.427L246.683 141.927C247.18 141.429 247.771 141.035 248.421 140.766C249.07 140.496 249.767 140.358 250.47 140.358C251.174 140.358 251.87 140.496 252.52 140.766C253.17 141.035 253.761 141.429 254.258 141.927L267.724 155.392L263.141 160.116Z" fill="white"/>
<path d="M152.224 218.064C149.963 216.681 146.778 215.99 142.668 215.99C141.023 215.99 139.51 216.065 138.127 216.214V205.62C138.127 204.499 138.249 203.677 138.492 203.154C138.735 202.631 139.192 202.276 139.865 202.089C140.538 201.902 141.584 201.809 143.004 201.809H146.423C148.03 201.809 149.375 202.379 150.459 203.518C151.542 204.658 152.234 206.181 152.532 208.087C152.57 208.199 152.691 208.245 152.897 208.227C153.102 208.208 153.205 208.143 153.205 208.031L152.42 201.248C152.383 201.062 152.336 200.931 152.28 200.856C152.224 200.781 152.103 200.744 151.916 200.744H130.224C130.112 200.744 130.056 200.856 130.056 201.08C130.056 201.304 130.112 201.417 130.224 201.417C131.682 201.417 132.756 201.519 133.447 201.725C134.138 201.93 134.606 202.295 134.848 202.818C135.091 203.341 135.213 204.163 135.213 205.284V231.236C135.213 232.357 135.082 233.188 134.82 233.73C134.559 234.272 134.082 234.636 133.391 234.823C132.7 235.01 131.607 235.103 130.112 235.103C130.037 235.103 130 235.215 130 235.439C130 235.664 130.037 235.776 130.112 235.776C131.308 235.776 132.242 235.757 132.915 235.72L136.614 235.664C137.548 235.664 138.398 235.682 139.164 235.72C139.93 235.757 140.594 235.794 141.154 235.832C142.499 235.944 143.658 236 144.629 236C146.797 236 148.712 235.552 150.375 234.655C152.037 233.758 153.327 232.487 154.242 230.843C155.158 229.199 155.615 227.312 155.615 225.182C155.615 221.819 154.485 219.446 152.224 218.064ZM150.262 233.029C148.861 234.412 146.61 235.103 143.508 235.103C141.341 235.103 139.902 234.795 139.192 234.178C138.482 233.562 138.127 232.581 138.127 231.236V217.223C139.697 217.073 140.837 216.999 141.546 216.999C145.059 216.999 147.74 217.737 149.59 219.213C151.439 220.689 152.364 223.164 152.364 226.639C152.364 229.517 151.664 231.647 150.262 233.029ZM197.541 235.439C197.541 235.215 197.467 235.103 197.317 235.103C196.458 235.103 195.701 234.907 195.047 234.515C194.393 234.122 193.73 233.431 193.057 232.441C192.385 231.451 191.619 230.003 190.759 228.097L177.755 200.183C177.718 200.071 177.615 200.015 177.447 200.015C177.279 200.015 177.158 200.071 177.083 200.183L165.368 228.377C164.621 230.171 163.92 231.553 163.266 232.525C162.612 233.496 161.921 234.169 161.192 234.543C160.464 234.916 159.576 235.103 158.53 235.103C158.343 235.103 158.25 235.215 158.25 235.439C158.25 235.664 158.343 235.776 158.53 235.776C159.24 235.776 160.155 235.738 161.276 235.664C162.547 235.589 163.649 235.552 164.583 235.552C165.63 235.552 166.863 235.589 168.283 235.664C169.553 235.738 170.525 235.776 171.197 235.776C171.384 235.776 171.478 235.664 171.478 235.439C171.478 235.215 171.384 235.103 171.197 235.103C169.292 235.103 167.89 234.86 166.994 234.374C166.097 233.889 165.648 233.104 165.648 232.02C165.648 231.198 165.91 230.152 166.433 228.882L170.245 219.689H183.585L188.854 231.067C189.265 232.002 189.47 232.73 189.47 233.253C189.47 233.926 189.134 234.403 188.461 234.683C187.789 234.963 186.686 235.103 185.154 235.103C185.005 235.103 184.93 235.215 184.93 235.439C184.93 235.664 185.005 235.776 185.154 235.776C185.752 235.776 186.649 235.738 187.845 235.664C189.115 235.589 190.143 235.552 190.927 235.552C191.6 235.552 192.646 235.589 194.066 235.664C195.561 235.738 196.645 235.776 197.317 235.776C197.467 235.776 197.541 235.664 197.541 235.439ZM170.693 218.68L176.522 204.611L183.08 218.68H170.693ZM238.066 235.439C238.066 235.215 238.01 235.103 237.898 235.103C236.441 235.103 235.366 235.01 234.675 234.823C233.984 234.636 233.507 234.272 233.246 233.73C232.984 233.188 232.854 232.357 232.854 231.236V205.284C232.854 204.163 232.984 203.341 233.246 202.818C233.507 202.295 233.984 201.93 234.675 201.725C235.366 201.519 236.441 201.417 237.898 201.417C238.01 201.417 238.066 201.304 238.066 201.08C238.066 200.856 238.01 200.744 237.898 200.744L235.208 200.8C233.638 200.875 232.386 200.912 231.452 200.912C230.443 200.912 229.154 200.875 227.585 200.8L224.95 200.744C224.838 200.744 224.782 200.856 224.782 201.08C224.782 201.304 224.838 201.417 224.95 201.417C226.408 201.417 227.482 201.529 228.173 201.753C228.865 201.977 229.332 202.36 229.575 202.902C229.817 203.444 229.939 204.275 229.939 205.396V216.999H207.575V205.396C207.575 204.275 207.696 203.444 207.939 202.902C208.182 202.36 208.649 201.977 209.34 201.753C210.031 201.529 211.106 201.417 212.563 201.417C212.638 201.417 212.675 201.304 212.675 201.08C212.675 200.856 212.638 200.744 212.563 200.744L209.929 200.8C208.359 200.875 207.07 200.912 206.061 200.912C205.164 200.912 203.931 200.875 202.362 200.8L199.615 200.744C199.541 200.744 199.503 200.856 199.503 201.08C199.503 201.304 199.541 201.417 199.615 201.417C201.073 201.417 202.147 201.519 202.838 201.725C203.53 201.93 203.997 202.295 204.24 202.818C204.482 203.341 204.604 204.163 204.604 205.284V231.236C204.604 232.357 204.473 233.188 204.211 233.73C203.95 234.272 203.473 234.636 202.782 234.823C202.091 235.01 201.017 235.103 199.559 235.103C199.485 235.103 199.447 235.215 199.447 235.439C199.447 235.664 199.485 235.776 199.559 235.776C200.755 235.776 201.689 235.757 202.362 235.72L206.061 235.664L209.873 235.72C210.545 235.757 211.442 235.776 212.563 235.776C212.638 235.776 212.675 235.664 212.675 235.439C212.675 235.215 212.638 235.103 212.563 235.103C211.068 235.103 209.985 235.01 209.312 234.823C208.64 234.636 208.182 234.281 207.939 233.758C207.696 233.235 207.575 232.394 207.575 231.236V218.064H229.939V231.236C229.939 232.394 229.817 233.235 229.575 233.758C229.332 234.281 228.874 234.636 228.201 234.823C227.529 235.01 226.445 235.103 224.95 235.103C224.838 235.103 224.782 235.215 224.782 235.439C224.782 235.664 224.838 235.776 224.95 235.776C226.071 235.776 226.949 235.757 227.585 235.72L231.452 235.664L235.208 235.72C235.843 235.757 236.74 235.776 237.898 235.776C238.01 235.776 238.066 235.664 238.066 235.439ZM242.382 235.439C242.382 235.664 242.42 235.776 242.494 235.776C243.69 235.776 244.624 235.757 245.297 235.72L248.996 235.664L253.873 235.72C254.732 235.757 255.928 235.776 257.46 235.776C257.572 235.776 257.628 235.664 257.628 235.439C257.628 235.215 257.572 235.103 257.46 235.103C255.367 235.103 253.845 234.991 252.892 234.767C251.939 234.543 251.294 234.16 250.958 233.618C250.622 233.076 250.454 232.207 250.454 231.011V205.34C250.454 204.331 250.584 203.584 250.846 203.098C251.107 202.612 251.575 202.276 252.247 202.089C252.92 201.902 253.947 201.809 255.33 201.809H260.487C262.131 201.809 263.457 202.369 264.466 203.49C265.475 204.611 265.98 206.125 265.98 208.031C265.98 208.143 266.092 208.199 266.316 208.199C266.54 208.199 266.652 208.143 266.652 208.031L266.54 201.248C266.54 200.912 266.353 200.744 265.98 200.744H242.494C242.42 200.744 242.382 200.856 242.382 201.08C242.382 201.304 242.42 201.417 242.494 201.417C243.952 201.417 245.026 201.519 245.717 201.725C246.409 201.93 246.876 202.295 247.118 202.818C247.361 203.341 247.483 204.163 247.483 205.284V231.236C247.483 232.357 247.361 233.188 247.118 233.73C246.876 234.272 246.409 234.636 245.717 234.823C245.026 235.01 243.952 235.103 242.494 235.103C242.42 235.103 242.382 235.215 242.382 235.439ZM303.814 235.439C303.814 235.215 303.739 235.103 303.59 235.103C302.73 235.103 301.974 234.907 301.32 234.515C300.666 234.122 300.003 233.431 299.33 232.441C298.657 231.451 297.891 230.003 297.032 228.097L284.028 200.183C283.991 200.071 283.888 200.015 283.72 200.015C283.552 200.015 283.43 200.071 283.355 200.183L271.641 228.377C270.893 230.171 270.193 231.553 269.539 232.525C268.885 233.496 268.194 234.169 267.465 234.543C266.736 234.916 265.849 235.103 264.803 235.103C264.616 235.103 264.522 235.215 264.522 235.439C264.522 235.664 264.616 235.776 264.803 235.776C265.513 235.776 266.428 235.738 267.549 235.664C268.82 235.589 269.922 235.552 270.856 235.552C271.902 235.552 273.135 235.589 274.555 235.664C275.826 235.738 276.797 235.776 277.47 235.776C277.657 235.776 277.75 235.664 277.75 235.439C277.75 235.215 277.657 235.103 277.47 235.103C275.564 235.103 274.163 234.86 273.266 234.374C272.369 233.889 271.921 233.104 271.921 232.02C271.921 231.198 272.183 230.152 272.706 228.882L276.517 219.689H289.857L295.126 231.067C295.537 232.002 295.743 232.73 295.743 233.253C295.743 233.926 295.406 234.403 294.734 234.683C294.061 234.963 292.959 235.103 291.427 235.103C291.277 235.103 291.203 235.215 291.203 235.439C291.203 235.664 291.277 235.776 291.427 235.776C292.025 235.776 292.921 235.738 294.117 235.664C295.388 235.589 296.415 235.552 297.2 235.552C297.873 235.552 298.919 235.589 300.339 235.664C301.834 235.738 302.917 235.776 303.59 235.776C303.739 235.776 303.814 235.664 303.814 235.439ZM276.966 218.68L282.795 204.611L289.353 218.68H276.966ZM314.744 233.618C314.408 233.076 314.24 232.207 314.24 231.011V205.396C314.24 204.051 314.38 203.107 314.66 202.566C314.94 202.024 315.398 201.678 316.033 201.529C316.668 201.379 317.752 201.304 319.284 201.304C320.928 201.304 322.432 201.687 323.796 202.453C325.16 203.22 326.234 204.322 327.019 205.76C327.804 207.199 328.196 208.909 328.196 210.889C328.196 213.953 327.271 216.289 325.422 217.896C323.572 219.502 321.321 220.306 318.668 220.306C317.92 220.306 317.248 220.231 316.65 220.082C316.575 220.044 316.51 220.082 316.454 220.194C316.397 220.306 316.369 220.418 316.369 220.53C316.369 220.717 316.425 220.81 316.538 220.81C317.248 220.997 318.163 221.09 319.284 221.09C321.302 221.09 323.254 220.679 325.141 219.857C327.028 219.035 328.589 217.774 329.822 216.074C331.055 214.374 331.671 212.272 331.671 209.768C331.671 206.667 330.644 204.359 328.589 202.846C326.533 201.332 323.862 200.576 320.573 200.576C320.312 200.576 318.724 200.632 315.809 200.744C314.651 200.856 313.623 200.912 312.726 200.912C311.829 200.912 310.596 200.875 309.027 200.8L306.28 200.744C306.206 200.744 306.168 200.856 306.168 201.08C306.168 201.304 306.206 201.417 306.28 201.417C307.738 201.417 308.812 201.519 309.503 201.725C310.194 201.93 310.662 202.295 310.904 202.818C311.147 203.341 311.269 204.163 311.269 205.284V231.236C311.269 232.357 311.147 233.188 310.904 233.73C310.662 234.272 310.194 234.636 309.503 234.823C308.812 235.01 307.738 235.103 306.28 235.103C306.206 235.103 306.168 235.215 306.168 235.439C306.168 235.664 306.206 235.776 306.28 235.776C307.476 235.776 308.41 235.757 309.083 235.72L312.782 235.664L317.659 235.72C318.518 235.757 319.714 235.776 321.246 235.776C321.358 235.776 321.414 235.664 321.414 235.439C321.414 235.215 321.358 235.103 321.246 235.103C319.153 235.103 317.631 234.991 316.678 234.767C315.725 234.543 315.08 234.16 314.744 233.618ZM370.907 235.439C370.907 235.215 370.832 235.103 370.683 235.103C369.823 235.103 369.067 234.907 368.413 234.515C367.759 234.122 367.096 233.431 366.423 232.441C365.75 231.451 364.984 230.003 364.125 228.097L351.121 200.183C351.084 200.071 350.981 200.015 350.813 200.015C350.645 200.015 350.523 200.071 350.448 200.183L338.734 228.377C337.986 230.171 337.286 231.553 336.632 232.525C335.978 233.496 335.287 234.169 334.558 234.543C333.829 234.916 332.942 235.103 331.896 235.103C331.709 235.103 331.615 235.215 331.615 235.439C331.615 235.664 331.709 235.776 331.896 235.776C332.606 235.776 333.521 235.738 334.642 235.664C335.913 235.589 337.015 235.552 337.949 235.552C338.995 235.552 340.228 235.589 341.648 235.664C342.919 235.738 343.89 235.776 344.563 235.776C344.75 235.776 344.843 235.664 344.843 235.439C344.843 235.215 344.75 235.103 344.563 235.103C342.657 235.103 341.256 234.86 340.359 234.374C339.462 233.889 339.014 233.104 339.014 232.02C339.014 231.198 339.276 230.152 339.799 228.882L343.61 219.689H356.95L362.219 231.067C362.63 232.002 362.836 232.73 362.836 233.253C362.836 233.926 362.499 234.403 361.827 234.683C361.154 234.963 360.052 235.103 358.52 235.103C358.37 235.103 358.296 235.215 358.296 235.439C358.296 235.664 358.37 235.776 358.52 235.776C359.118 235.776 360.014 235.738 361.21 235.664C362.481 235.589 363.508 235.552 364.293 235.552C364.966 235.552 366.012 235.589 367.432 235.664C368.927 235.738 370.01 235.776 370.683 235.776C370.832 235.776 370.907 235.664 370.907 235.439ZM344.059 218.68L349.888 204.611L356.446 218.68H344.059Z" fill="#3B84C9"/>
</svg>
